{
	"asset":{
		"generator":"Khronos glTF Blender I/O v4.4.56",
		"version":"2.0"
	},
	"extensionsUsed":[
		"KHR_materials_transmission",
		"KHR_materials_ior"
	],
	"scene":0,
	"scenes":[
		{
			"name":"Scene",
			"nodes":[
				0
			]
		}
	],
	"nodes":[
		{
			"mesh":0,
			"name":"glass",
			"rotation":[
				1,
				0,
				0,
				0
			]
		}
	],
	"materials":[
		{
			"doubleSided":true,
			"extensions":{
				"KHR_materials_transmission":{
					"transmissionFactor":1
				},
				"KHR_materials_ior":{
					"ior":1.5509999990463257
				}
			},
			"name":"MaterialGlass1",
			"pbrMetallicRoughness":{
				"metallicFactor":0,
				"roughnessFactor":0
			}
		}
	],
	"meshes":[
		{
			"name":"glass",
			"primitives":[
				{
					"attributes":{
						"POSITION":0,
						"NORMAL":1,
						"TEXCOORD_0":2
					},
					"indices":3,
					"material":0
				}
			]
		}
	],
	"accessors":[
		{
			"bufferView":0,
			"componentType":5126,
			"count":1962,
			"max":[
				17.348657608032227,
				79.7093505859375,
				79.50882720947266
			],
			"min":[
				-17.102760314941406,
				-79.551025390625,
				-79.75154113769531
			],
			"type":"VEC3"
		},
		{
			"bufferView":1,
			"componentType":5126,
			"count":1962,
			"type":"VEC3"
		},
		{
			"bufferView":2,
			"componentType":5126,
			"count":1962,
			"type":"VEC2"
		},
		{
			"bufferView":3,
			"componentType":5123,
			"count":2400,
			"type":"SCALAR"
		}
	],
	"bufferViews":[
		{
			"buffer":0,
			"byteLength":23544,
			"byteOffset":0,
			"target":34962
		},
		{
			"buffer":0,
			"byteLength":23544,
			"byteOffset":23544,
			"target":34962
		},
		{
			"buffer":0,
			"byteLength":15696,
			"byteOffset":47088,
			"target":34962
		},
		{
			"buffer":0,
			"byteLength":4800,
			"byteOffset":62784,
			"target":34963
		}
	],
	"buffers":[
		{
			"byteLength":67584,
			"uri":"transparent-machines-pt0.bin"
		}
	]
}
