{
	"asset":{
		"generator":"Khronos glTF Blender I/O v4.4.56",
		"version":"2.0"
	},
	"extensionsUsed":[
		"KHR_materials_transmission",
		"KHR_materials_specular",
		"KHR_materials_ior",
		"KHR_lights_punctual"
	],
	"extensionsRequired":[
		"KHR_lights_punctual"
	],
	"extensions":{
		"KHR_lights_punctual":{
			"lights":[
				{
					"color":[
						0.027183543890714645,
						0.1505628228187561,
						1
					],
					"intensity":543.5141306588226,
					"spot":{
						"innerConeAngle":0.39269909262657166,
						"outerConeAngle":0.7853981852531433
					},
					"type":"spot",
					"name":"Spot.001"
				},
				{
					"color":[
						0.027183543890714645,
						0.1505628228187561,
						1
					],
					"intensity":543.5141306588226,
					"spot":{
						"innerConeAngle":0.39269909262657166,
						"outerConeAngle":0.7853981852531433
					},
					"type":"spot",
					"name":"Spot"
				},
				{
					"color":[
						0.9900000095367432,
						0.5,
						0.009999999776482582
					],
					"intensity":217.40567818030237,
					"spot":{
						"innerConeAngle":0.2072578495605542,
						"outerConeAngle":0.21816615760326385
					},
					"type":"spot",
					"name":"SpotLeft"
				},
				{
					"color":[
						0.009999999776482582,
						0.5,
						0.9900000095367432
					],
					"intensity":217.40567818030237,
					"spot":{
						"innerConeAngle":0.2072578495605542,
						"outerConeAngle":0.21816615760326385
					},
					"type":"spot",
					"name":"SpotRight"
				}
			]
		}
	},
	"scene":0,
	"scenes":[
		{
			"name":"Scene",
			"nodes":[
				8
			]
		}
	],
	"nodes":[
		{
			"mesh":0,
			"name":"ProxyBlobMesh.001",
			"rotation":[
				0.7071068286895752,
				0,
				0,
				0.7071068286895752
			],
			"translation":[
				-4.26208089265856e-06,
				-4.1650246203062125e-06,
				2.8358763302094303e-06
			]
		},
		{
			"children":[
				0
			],
			"extensions":{
				"KHR_lights_punctual":{
					"light":0
				}
			},
			"name":"BlobLeft",
			"rotation":[
				-0.5,
				-0.5,
				0.5,
				0.5
			],
			"scale":[
				2,
				1.9999998807907104,
				1.9999998807907104
			],
			"translation":[
				20.469898223876953,
				17.141298294067383,
				-65.26899719238281
			]
		},
		{
			"mesh":1,
			"name":"ProxyBlobMesh.002",
			"rotation":[
				0.7071068286895752,
				0,
				0,
				0.7071068286895752
			],
			"translation":[
				-3.367313411217765e-06,
				-3.4643699109437875e-06,
				0
			]
		},
		{
			"children":[
				2
			],
			"extensions":{
				"KHR_lights_punctual":{
					"light":1
				}
			},
			"name":"BlobRight",
			"rotation":[
				-0.5,
				-0.5,
				0.5,
				0.5
			],
			"scale":[
				2,
				1.9999998807907104,
				1.9999998807907104
			],
			"translation":[
				-20.469898223876953,
				17.141298294067383,
				-65.26899719238281
			]
		},
		{
			"mesh":2,
			"name":"ProxySpotMeshLeft",
			"rotation":[
				0.9914449453353882,
				0,
				0,
				0.13052621483802795
			],
			"translation":[
				0,
				-0.0011048316955566406,
				-0.004132509231567383
			]
		},
		{
			"children":[
				4
			],
			"extensions":{
				"KHR_lights_punctual":{
					"light":2
				}
			},
			"name":"SpotLeft",
			"rotation":[
				-0.9914448857307434,
				0,
				0,
				0.13052622973918915
			],
			"translation":[
				19.349998474121094,
				-6.279199600219727,
				10.299999237060547
			]
		},
		{
			"mesh":3,
			"name":"ProxySpotMeshRight",
			"rotation":[
				0.9914449453353882,
				0,
				0,
				0.13052621483802795
			],
			"translation":[
				0,
				-0.0011048316955566406,
				-0.004132509231567383
			]
		},
		{
			"children":[
				6
			],
			"extensions":{
				"KHR_lights_punctual":{
					"light":3
				}
			},
			"name":"SpotRight",
			"rotation":[
				-0.9914448857307434,
				0,
				0,
				0.13052622973918915
			],
			"translation":[
				-19.349998474121094,
				-6.279199600219727,
				10.299999237060547
			]
		},
		{
			"children":[
				1,
				3,
				5,
				7
			],
			"mesh":4,
			"name":"RX6-Fighter",
			"scale":[
				0.10000000149011612,
				0.10000000149011612,
				0.10000000149011612
			],
			"translation":[
				0,
				2.0169999599456787,
				0
			]
		}
	],
	"materials":[
		{
			"doubleSided":true,
			"extensions":{
				"KHR_materials_transmission":{
					"transmissionFactor":1
				},
				"KHR_materials_ior":{
					"ior":1.100000023841858
				}
			},
			"name":"BlobProxyMat",
			"pbrMetallicRoughness":{
				"baseColorFactor":[
					0.800000011920929,
					0.800000011920929,
					0.800000011920929,
					1
				],
				"metallicFactor":0,
				"roughnessFactor":0
			}
		},
		{
			"doubleSided":true,
			"name":"SpotlightProxyMat",
			"pbrMetallicRoughness":{
				"metallicFactor":0,
				"roughnessFactor":0
			}
		},
		{
			"doubleSided":true,
			"extensions":{
				"KHR_materials_specular":{
					"specularFactor":0
				}
			},
			"name":"RX6-Fighter",
			"pbrMetallicRoughness":{
				"baseColorTexture":{
					"index":0
				},
				"roughnessFactor":0.858578622341156
			}
		}
	],
	"meshes":[
		{
			"name":"Icosphere.002",
			"primitives":[
				{
					"attributes":{
						"POSITION":0,
						"NORMAL":1,
						"TEXCOORD_0":2,
						"TANGENT":3
					},
					"indices":4,
					"material":0
				}
			]
		},
		{
			"name":"Icosphere.003",
			"primitives":[
				{
					"attributes":{
						"POSITION":5,
						"NORMAL":6,
						"TEXCOORD_0":7,
						"TANGENT":8
					},
					"indices":4,
					"material":0
				}
			]
		},
		{
			"name":"Icosphere",
			"primitives":[
				{
					"attributes":{
						"POSITION":9,
						"NORMAL":10,
						"TEXCOORD_0":11,
						"TANGENT":12
					},
					"indices":13,
					"material":1
				}
			]
		},
		{
			"name":"Icosphere.001",
			"primitives":[
				{
					"attributes":{
						"POSITION":14,
						"NORMAL":15,
						"TEXCOORD_0":16,
						"TANGENT":17
					},
					"indices":13,
					"material":1
				}
			]
		},
		{
			"name":"Mesh",
			"primitives":[
				{
					"attributes":{
						"POSITION":18,
						"NORMAL":19,
						"TEXCOORD_0":20,
						"TANGENT":21,
						"COLOR_0":22,
						"COLOR_1":23
					},
					"indices":24,
					"material":2
				}
			]
		}
	],
	"textures":[
		{
			"sampler":0,
			"source":0
		}
	],
	"images":[
		{
			"mimeType":"image/png",
			"name":"RX6_green",
			"uri":"RX6_green.png"
		}
	],
	"accessors":[
		{
			"bufferView":0,
			"componentType":5126,
			"count":205,
			"max":[
				1,
				1,
				0.9999999403953552
			],
			"min":[
				-0.9999999403953552,
				-1,
				-0.9999999403953552
			],
			"type":"VEC3"
		},
		{
			"bufferView":1,
			"componentType":5126,
			"count":205,
			"type":"VEC3"
		},
		{
			"bufferView":2,
			"componentType":5126,
			"count":205,
			"type":"VEC2"
		},
		{
			"bufferView":3,
			"componentType":5126,
			"count":205,
			"type":"VEC4"
		},
		{
			"bufferView":4,
			"componentType":5123,
			"count":960,
			"type":"SCALAR"
		},
		{
			"bufferView":5,
			"componentType":5126,
			"count":205,
			"max":[
				1,
				1,
				0.9999999403953552
			],
			"min":[
				-0.9999999403953552,
				-1,
				-0.9999999403953552
			],
			"type":"VEC3"
		},
		{
			"bufferView":6,
			"componentType":5126,
			"count":205,
			"type":"VEC3"
		},
		{
			"bufferView":7,
			"componentType":5126,
			"count":205,
			"type":"VEC2"
		},
		{
			"bufferView":8,
			"componentType":5126,
			"count":205,
			"type":"VEC4"
		},
		{
			"bufferView":9,
			"componentType":5126,
			"count":81,
			"max":[
				0.9510579109191895,
				1,
				0.09999998658895493
			],
			"min":[
				-0.9510579109191895,
				-1,
				-0.09999998658895493
			],
			"type":"VEC3"
		},
		{
			"bufferView":10,
			"componentType":5126,
			"count":81,
			"type":"VEC3"
		},
		{
			"bufferView":11,
			"componentType":5126,
			"count":81,
			"type":"VEC2"
		},
		{
			"bufferView":12,
			"componentType":5126,
			"count":81,
			"type":"VEC4"
		},
		{
			"bufferView":13,
			"componentType":5123,
			"count":240,
			"type":"SCALAR"
		},
		{
			"bufferView":14,
			"componentType":5126,
			"count":81,
			"max":[
				0.9510579109191895,
				1,
				0.09999998658895493
			],
			"min":[
				-0.9510579109191895,
				-1,
				-0.09999998658895493
			],
			"type":"VEC3"
		},
		{
			"bufferView":15,
			"componentType":5126,
			"count":81,
			"type":"VEC3"
		},
		{
			"bufferView":16,
			"componentType":5126,
			"count":81,
			"type":"VEC2"
		},
		{
			"bufferView":17,
			"componentType":5126,
			"count":81,
			"type":"VEC4"
		},
		{
			"bufferView":18,
			"componentType":5126,
			"count":6355,
			"max":[
				44.57735824584961,
				19.16667938232422,
				85.42423248291016
			],
			"min":[
				-44.57735824584961,
				-19.16667938232422,
				-85.42423248291016
			],
			"type":"VEC3"
		},
		{
			"bufferView":19,
			"componentType":5126,
			"count":6355,
			"type":"VEC3"
		},
		{
			"bufferView":20,
			"componentType":5126,
			"count":6355,
			"type":"VEC2"
		},
		{
			"bufferView":21,
			"componentType":5126,
			"count":6355,
			"type":"VEC4"
		},
		{
			"bufferView":22,
			"componentType":5121,
			"count":6355,
			"normalized":true,
			"type":"VEC4"
		},
		{
			"bufferView":23,
			"componentType":5123,
			"count":6355,
			"normalized":true,
			"type":"VEC4"
		},
		{
			"bufferView":24,
			"componentType":5123,
			"count":11766,
			"type":"SCALAR"
		}
	],
	"bufferViews":[
		{
			"buffer":0,
			"byteLength":2460,
			"byteOffset":0,
			"target":34962
		},
		{
			"buffer":0,
			"byteLength":2460,
			"byteOffset":2460,
			"target":34962
		},
		{
			"buffer":0,
			"byteLength":1640,
			"byteOffset":4920,
			"target":34962
		},
		{
			"buffer":0,
			"byteLength":3280,
			"byteOffset":6560,
			"target":34962
		},
		{
			"buffer":0,
			"byteLength":1920,
			"byteOffset":9840,
			"target":34963
		},
		{
			"buffer":0,
			"byteLength":2460,
			"byteOffset":11760,
			"target":34962
		},
		{
			"buffer":0,
			"byteLength":2460,
			"byteOffset":14220,
			"target":34962
		},
		{
			"buffer":0,
			"byteLength":1640,
			"byteOffset":16680,
			"target":34962
		},
		{
			"buffer":0,
			"byteLength":3280,
			"byteOffset":18320,
			"target":34962
		},
		{
			"buffer":0,
			"byteLength":972,
			"byteOffset":21600,
			"target":34962
		},
		{
			"buffer":0,
			"byteLength":972,
			"byteOffset":22572,
			"target":34962
		},
		{
			"buffer":0,
			"byteLength":648,
			"byteOffset":23544,
			"target":34962
		},
		{
			"buffer":0,
			"byteLength":1296,
			"byteOffset":24192,
			"target":34962
		},
		{
			"buffer":0,
			"byteLength":480,
			"byteOffset":25488,
			"target":34963
		},
		{
			"buffer":0,
			"byteLength":972,
			"byteOffset":25968,
			"target":34962
		},
		{
			"buffer":0,
			"byteLength":972,
			"byteOffset":26940,
			"target":34962
		},
		{
			"buffer":0,
			"byteLength":648,
			"byteOffset":27912,
			"target":34962
		},
		{
			"buffer":0,
			"byteLength":1296,
			"byteOffset":28560,
			"target":34962
		},
		{
			"buffer":0,
			"byteLength":76260,
			"byteOffset":29856,
			"target":34962
		},
		{
			"buffer":0,
			"byteLength":76260,
			"byteOffset":106116,
			"target":34962
		},
		{
			"buffer":0,
			"byteLength":50840,
			"byteOffset":182376,
			"target":34962
		},
		{
			"buffer":0,
			"byteLength":101680,
			"byteOffset":233216,
			"target":34962
		},
		{
			"buffer":0,
			"byteLength":25420,
			"byteOffset":334896,
			"target":34962
		},
		{
			"buffer":0,
			"byteLength":50840,
			"byteOffset":360316,
			"target":34962
		},
		{
			"buffer":0,
			"byteLength":23532,
			"byteOffset":411156,
			"target":34963
		}
	],
	"samplers":[
		{
			"magFilter":9729,
			"minFilter":9987
		}
	],
	"buffers":[
		{
			"byteLength":434688,
			"uri":"rx6.bin"
		}
	]
}
