{
	"asset":{
		"generator":"Khronos glTF Blender I/O v4.3.47",
		"version":"2.0"
	},
	"extensionsUsed":[
		"KHR_lights_punctual"
	],
	"extensionsRequired":[
		"KHR_lights_punctual"
	],
	"extensions":{
		"KHR_lights_punctual":{
			"lights":[
				{
					"color":[
						1,
						1,
						1
					],
					"intensity":5.435141387578143,
					"type":"point",
					"name":"Point"
				}
			]
		}
	},
	"scene":0,
	"scenes":[
		{
			"name":"Scene",
			"nodes":[
				1
			]
		}
	],
	"nodes":[
		{
			"mesh":0,
			"name":"LightProxyMesh",
			"rotation":[
				0.7071068286895752,
				0,
				0,
				0.7071068286895752
			]
		},
		{
			"children":[
				0
			],
			"extensions":{
				"KHR_lights_punctual":{
					"light":0
				}
			},
			"name":"OrbLight",
			"rotation":[
				-0.7071068286895752,
				0,
				0,
				0.7071068286895752
			]
		}
	],
	"materials":[
		{
			"doubleSided":true,
			"name":"OrbLight",
			"pbrMetallicRoughness":{
				"baseColorFactor":[
					0.800000011920929,
					0.800000011920929,
					0.800000011920929,
					1
				],
				"metallicFactor":0,
				"roughnessFactor":0.5
			}
		}
	],
	"meshes":[
		{
			"name":"SphereMesh",
			"primitives":[
				{
					"attributes":{
						"POSITION":0,
						"NORMAL":1,
						"TEXCOORD_0":2,
						"TANGENT":3
					},
					"indices":4,
					"material":0
				}
			]
		}
	],
	"accessors":[
		{
			"bufferView":0,
			"componentType":5126,
			"count":205,
			"max":[
				1,
				1,
				0.9999999403953552
			],
			"min":[
				-0.9999999403953552,
				-1,
				-0.9999999403953552
			],
			"type":"VEC3"
		},
		{
			"bufferView":1,
			"componentType":5126,
			"count":205,
			"type":"VEC3"
		},
		{
			"bufferView":2,
			"componentType":5126,
			"count":205,
			"type":"VEC2"
		},
		{
			"bufferView":3,
			"componentType":5126,
			"count":205,
			"type":"VEC4"
		},
		{
			"bufferView":4,
			"componentType":5123,
			"count":960,
			"type":"SCALAR"
		}
	],
	"bufferViews":[
		{
			"buffer":0,
			"byteLength":2460,
			"byteOffset":0,
			"target":34962
		},
		{
			"buffer":0,
			"byteLength":2460,
			"byteOffset":2460,
			"target":34962
		},
		{
			"buffer":0,
			"byteLength":1640,
			"byteOffset":4920,
			"target":34962
		},
		{
			"buffer":0,
			"byteLength":3280,
			"byteOffset":6560,
			"target":34962
		},
		{
			"buffer":0,
			"byteLength":1920,
			"byteOffset":9840,
			"target":34963
		}
	],
	"buffers":[
		{
			"byteLength":11760,
			"uri":"OrbLight.bin"
		}
	]
}
