{
	"asset":{
		"generator":"Khronos glTF Blender I/O v4.4.56",
		"version":"2.0"
	},
	"extensionsUsed":[
		"KHR_lights_punctual"
	],
	"extensionsRequired":[
		"KHR_lights_punctual"
	],
	"extensions":{
		"KHR_lights_punctual":{
			"lights":[
				{
					"color":[
						1,
						1,
						1
					],
					"intensity":543.5141306588226,
					"spot":{
						"innerConeAngle":0.3337942263919169,
						"outerConeAngle":0.39269909262657166
					},
					"type":"spot",
					"name":"Spot"
				}
			]
		}
	},
	"scene":0,
	"scenes":[
		{
			"name":"Scene",
			"nodes":[
				0,
				2
			]
		}
	],
	"nodes":[
		{
			"mesh":0,
			"name":"LightShroud",
			"rotation":[
				0,
				1,
				0,
				7.549790126404332e-08
			],
			"scale":[
				1.0499999523162842,
				1.0499999523162842,
				1.0499999523162842
			]
		},
		{
			"mesh":1,
			"name":"LightProxyMesh",
			"rotation":[
				0.7071068286895752,
				0,
				0,
				0.7071068286895752
			]
		},
		{
			"children":[
				1
			],
			"extensions":{
				"KHR_lights_punctual":{
					"light":0
				}
			},
			"name":"SpotLight",
			"rotation":[
				-0.5,
				-0.5,
				0.5,
				0.5
			]
		}
	],
	"materials":[
		{
			"doubleSided":true,
			"name":"ShroudMaterial",
			"pbrMetallicRoughness":{
				"baseColorFactor":[
					0.10740739107131958,
					0.10740739107131958,
					0.10740739107131958,
					1
				]
			}
		},
		{
			"doubleSided":true,
			"name":"ProxyMeshMaterial",
			"pbrMetallicRoughness":{
				"baseColorFactor":[
					0.800000011920929,
					0.800000011920929,
					0.800000011920929,
					1
				],
				"metallicFactor":0,
				"roughnessFactor":0.5
			}
		}
	],
	"meshes":[
		{
			"name":"ShroudMesh",
			"primitives":[
				{
					"attributes":{
						"POSITION":0,
						"NORMAL":1,
						"TEXCOORD_0":2
					},
					"indices":3,
					"material":0
				}
			]
		},
		{
			"name":"SphereMesh",
			"primitives":[
				{
					"attributes":{
						"POSITION":4,
						"NORMAL":5,
						"TEXCOORD_0":6,
						"TANGENT":7
					},
					"indices":8,
					"material":1
				}
			]
		}
	],
	"accessors":[
		{
			"bufferView":0,
			"componentType":5126,
			"count":179,
			"max":[
				1,
				1,
				0.9999999403953552
			],
			"min":[
				0,
				-1,
				-0.9999999403953552
			],
			"type":"VEC3"
		},
		{
			"bufferView":1,
			"componentType":5126,
			"count":179,
			"type":"VEC3"
		},
		{
			"bufferView":2,
			"componentType":5126,
			"count":179,
			"type":"VEC2"
		},
		{
			"bufferView":3,
			"componentType":5123,
			"count":702,
			"type":"SCALAR"
		},
		{
			"bufferView":4,
			"componentType":5126,
			"count":205,
			"max":[
				1,
				0.19999998807907104,
				0.9999999403953552
			],
			"min":[
				-1,
				-0.20000000298023224,
				-0.9999999403953552
			],
			"type":"VEC3"
		},
		{
			"bufferView":5,
			"componentType":5126,
			"count":205,
			"type":"VEC3"
		},
		{
			"bufferView":6,
			"componentType":5126,
			"count":205,
			"type":"VEC2"
		},
		{
			"bufferView":7,
			"componentType":5126,
			"count":205,
			"type":"VEC4"
		},
		{
			"bufferView":8,
			"componentType":5123,
			"count":960,
			"type":"SCALAR"
		}
	],
	"bufferViews":[
		{
			"buffer":0,
			"byteLength":2148,
			"byteOffset":0,
			"target":34962
		},
		{
			"buffer":0,
			"byteLength":2148,
			"byteOffset":2148,
			"target":34962
		},
		{
			"buffer":0,
			"byteLength":1432,
			"byteOffset":4296,
			"target":34962
		},
		{
			"buffer":0,
			"byteLength":1404,
			"byteOffset":5728,
			"target":34963
		},
		{
			"buffer":0,
			"byteLength":2460,
			"byteOffset":7132,
			"target":34962
		},
		{
			"buffer":0,
			"byteLength":2460,
			"byteOffset":9592,
			"target":34962
		},
		{
			"buffer":0,
			"byteLength":1640,
			"byteOffset":12052,
			"target":34962
		},
		{
			"buffer":0,
			"byteLength":3280,
			"byteOffset":13692,
			"target":34962
		},
		{
			"buffer":0,
			"byteLength":1920,
			"byteOffset":16972,
			"target":34963
		}
	],
	"buffers":[
		{
			"byteLength":18892,
			"uri":"SpotLight.bin"
		}
	]
}
