{
	"asset":{
		"generator":"Khronos glTF Blender I/O v4.5.47",
		"version":"2.0"
	},
	"extensionsUsed":[
		"KHR_materials_transmission"
	],
	"scene":0,
	"scenes":[
		{
			"name":"Scene",
			"nodes":[
				0
			]
		}
	],
	"nodes":[
		{
			"mesh":0,
			"name":"GlassLens"
		}
	],
	"materials":[
		{
			"doubleSided":true,
			"extensions":{
				"KHR_materials_transmission":{
					"transmissionFactor":1
				}
			},
			"name":"LensGlass",
			"pbrMetallicRoughness":{
				"baseColorFactor":[
					0.800000011920929,
					0.800000011920929,
					0.800000011920929,
					1
				],
				"metallicFactor":0,
				"roughnessFactor":0
			}
		}
	],
	"meshes":[
		{
			"name":"Sphere",
			"primitives":[
				{
					"attributes":{
						"POSITION":0,
						"NORMAL":1,
						"TEXCOORD_0":2,
						"TANGENT":3
					},
					"indices":4,
					"material":0
				}
			]
		}
	],
	"accessors":[
		{
			"bufferView":0,
			"componentType":5126,
			"count":8586,
			"max":[
				0.9999995827674866,
				1,
				0.09999992698431015
			],
			"min":[
				-0.9999986886978149,
				-1,
				-0.09999983757734299
			],
			"type":"VEC3"
		},
		{
			"bufferView":1,
			"componentType":5126,
			"count":8586,
			"type":"VEC3"
		},
		{
			"bufferView":2,
			"componentType":5126,
			"count":8586,
			"type":"VEC2"
		},
		{
			"bufferView":3,
			"componentType":5126,
			"count":8586,
			"type":"VEC4"
		},
		{
			"bufferView":4,
			"componentType":5123,
			"count":48384,
			"type":"SCALAR"
		}
	],
	"bufferViews":[
		{
			"buffer":0,
			"byteLength":103032,
			"byteOffset":0,
			"target":34962
		},
		{
			"buffer":0,
			"byteLength":103032,
			"byteOffset":103032,
			"target":34962
		},
		{
			"buffer":0,
			"byteLength":68688,
			"byteOffset":206064,
			"target":34962
		},
		{
			"buffer":0,
			"byteLength":137376,
			"byteOffset":274752,
			"target":34962
		},
		{
			"buffer":0,
			"byteLength":96768,
			"byteOffset":412128,
			"target":34963
		}
	],
	"buffers":[
		{
			"byteLength":508896,
			"uri":"GlassLens.bin"
		}
	]
}
